<svg width="47" height="47" viewBox="0 0 47 47" fill="none" xmlns="http://www.w3.org/2000/svg">
<rect width="47" height="47" rx="6" fill="#087F5B"/>
<path fill-rule="evenodd" clip-rule="evenodd" d="M33.7114 16.4531H19.003C15.4458 16.4531 13.2148 18.9722 13.2148 22.5382V32.1593C13.2148 35.7254 15.4335 38.2443 19.003 38.2443H33.7096C37.2809 38.2443 39.5013 35.7254 39.5013 32.1593V22.5382C39.5013 18.9722 37.2809 16.4531 33.7114 16.4531Z" stroke="white" stroke-width="2.5" stroke-linecap="round" stroke-linejoin="round"/>
<path d="M8.24023 9H22.9873" stroke="white" stroke-width="2.5" stroke-linecap="round" stroke-linejoin="round"/>
<path d="M33.1384 16.4475L30.5615 12.1524C28.7152 9.11169 25.5216 8.08579 22.4563 9.93379L9.86461 17.512C6.81155 19.3459 6.19673 22.6537 8.03067 25.7191L13.0055 33.9507C13.2374 34.3495 13.4939 34.7078 13.7872 35.0292V35.0416" stroke="white" stroke-width="2.5" stroke-linecap="round" stroke-linejoin="round"/>
</svg>
